<svg width="240" height="240" viewBox="0 0 240 240" fill="none" xmlns="http://www.w3.org/2000/svg">
<path d="M120 230C180.751 230 230 180.751 230 120C230 59.2487 180.751 10 120 10C59.2487 10 10 59.2487 10 120C10 180.751 59.2487 230 120 230Z" fill="#4DA6FF"/>
<path d="M120 205C158.66 205 190 173.66 190 135C190 96.3401 158.66 65 120 65C81.3401 65 50 96.3401 50 135C50 173.66 81.3401 205 120 205Z" fill="#111111"/>
<path d="M163.307 84.398C164.518 84.9746 165.943 84.2182 166.144 82.8916L172.405 41.5524C172.67 39.8034 170.7 38.5968 169.263 39.6272L132.097 66.2586C130.859 67.1457 131.027 69.0358 132.402 69.6903L163.307 84.398Z" fill="#111111"/>
<path d="M120 159C122.209 159 124 157.209 124 155C124 152.791 122.209 151 120 151C117.791 151 116 152.791 116 155C116 157.209 117.791 159 120 159Z" fill="#FF8FA3"/>
<path d="M120 160C113.333 166.667 106.667 166.667 100 160" stroke="#FF8FA3" stroke-width="2"/>
<path d="M120 160C126.667 166.667 133.333 166.667 140 160" stroke="#FF8FA3" stroke-width="2"/>
<path opacity="0.4" d="M80 161C83.3137 161 86 158.314 86 155C86 151.686 83.3137 149 80 149C76.6863 149 74 151.686 74 155C74 158.314 76.6863 161 80 161Z" fill="#FF8FA3"/>
<path opacity="0.4" d="M160 161C163.314 161 166 158.314 166 155C166 151.686 163.314 149 160 149C156.686 149 154 151.686 154 155C154 158.314 156.686 161 160 161Z" fill="#FF8FA3"/>
<path d="M65 150L95 155" stroke="white" stroke-width="2"/>
<path d="M175 150L145 155" stroke="white" stroke-width="2"/>
<path d="M95 207C104.941 207 113 201.627 113 195C113 188.373 104.941 183 95 183C85.0589 183 77 188.373 77 195C77 201.627 85.0589 207 95 207Z" fill="#111111"/>
<path d="M145 207C154.941 207 163 201.627 163 195C163 188.373 154.941 183 145 183C135.059 183 127 188.373 127 195C127 201.627 135.059 207 145 207Z" fill="#111111"/>
<path d="M78.5769 85.0685C77.3491 85.6094 75.9473 84.8118 75.7852 83.4799L70.7335 41.9756C70.5197 40.2195 72.5235 39.071 73.9307 40.1429L110.303 67.8479C111.515 68.7708 111.292 70.6551 109.898 71.2692L78.5769 85.0685Z" fill="#111111"/>
<path d="M83.66 77.2437L76.1016 48.4883L101.295 67.6005L83.66 77.2437Z" fill="#FFB3BA"/>
<path d="M158.416 77.4092L166.615 48.8299L141 67.3743L158.416 77.4092Z" fill="#FFB3BA"/>
<path d="M130 134.5C140 124.5 150 124.5 160 134.5" stroke="#FFD93D" stroke-width="4"/>
<path d="M80 134.5C90 124.5 100 124.5 110 134.5" stroke="#FFD93D" stroke-width="4"/>
</svg>
