<svg width="90" height="40" viewBox="0 0 90 40" fill="none" xmlns="http://www.w3.org/2000/svg">
<path d="M20 40C31.0457 40 40 31.0457 40 20C40 8.9543 31.0457 0 20 0C8.9543 0 0 8.9543 0 20C0 31.0457 8.9543 40 20 40Z" fill="#FFD93D"/>
<path d="M70 40C81.0457 40 90 31.0457 90 20C90 8.9543 81.0457 0 70 0C58.9543 0 50 8.9543 50 20C50 31.0457 58.9543 40 70 40Z" fill="#FFD93D"/>
<path d="M25 20C27.7614 20 30 17.7614 30 15C30 12.2386 27.7614 10 25 10C22.2386 10 20 12.2386 20 15C20 17.7614 22.2386 20 25 20Z" fill="white"/>
<path d="M75 20C77.7614 20 80 17.7614 80 15C80 12.2386 77.7614 10 75 10C72.2386 10 70 12.2386 70 15C70 17.7614 72.2386 20 75 20Z" fill="white"/>
</svg>
