<svg width="240" height="240" viewBox="0 0 240 240" fill="none" xmlns="http://www.w3.org/2000/svg">
<path d="M120 205C158.66 205 190 173.66 190 135C190 96.3401 158.66 65 120 65C81.3401 65 50 96.3401 50 135C50 173.66 81.3401 205 120 205Z" fill="#111111"/>
<path d="M163.307 84.398C164.518 84.9746 165.943 84.2182 166.144 82.8916L172.405 41.5524C172.67 39.8034 170.7 38.5969 169.262 39.6272L132.097 66.2587C130.859 67.1457 131.027 69.0358 132.402 69.6903L163.307 84.398Z" fill="#111111"/>
<path opacity="0.4" d="M80 161C83.3137 161 86 158.314 86 155C86 151.686 83.3137 149 80 149C76.6863 149 74 151.686 74 155C74 158.314 76.6863 161 80 161Z" fill="#FF8FA3"/>
<path opacity="0.4" d="M160 161C163.314 161 166 158.314 166 155C166 151.686 163.314 149 160 149C156.686 149 154 151.686 154 155C154 158.314 156.686 161 160 161Z" fill="#FF8FA3"/>
<path d="M65 150L95 155" stroke="white" stroke-width="2"/>
<path d="M175 150L145 155" stroke="white" stroke-width="2"/>
<path d="M78.5769 85.0685C77.3491 85.6095 75.9473 84.8118 75.7852 83.4799L70.7335 41.9756C70.5197 40.2196 72.5235 39.071 73.9307 40.1429L110.303 67.848C111.515 68.7708 111.292 70.6552 109.898 71.2692L78.5769 85.0685Z" fill="#111111"/>
<path d="M83.66 77.2437L76.1016 48.4883L101.295 67.6005L83.66 77.2437Z" fill="#FFB3BA"/>
<path d="M158.416 77.4092L166.615 48.8299L141 67.3743L158.416 77.4092Z" fill="#FFB3BA"/>
</svg>
